# xmcd
#
# Track frame offsets: 
#        150
#        20054
#        40967
#        61357
#        82882
#
# Disc length: 1381 seconds
#
# Revision: 0
# Processed by: cddbd v1.5.2PL0 Copyright (c) Steve Scherf et al.
# Submitted via: ExactAudioCopy v0.95b3
#
DISCID=38056305
DTITLE=Jesse Dee - get on by
DYEAR=2004
DGENRE=Acoustic
TTITLE0=Around Here
TTITLE1=Who Do You
TTITLE2=Someday
TTITLE3=Back in Your Direction
TTITLE4=Yet to Come
EXTD=
EXTT0=
EXTT1=
EXTT2=
EXTT3=
EXTT4=
PLAYORDER=
